<?xml version="1.0" standalone="no"?>
<!DOCTYPE svg PUBLIC "-//W3C//DTD SVG 20010904//EN"
 "http://www.w3.org/TR/2001/REC-SVG-20010904/DTD/svg10.dtd">
<svg version="1.0" xmlns="http://www.w3.org/2000/svg"
 width="1272.000000pt" height="1280.000000pt" viewBox="0 0 1272.000000 1280.000000"
 preserveAspectRatio="xMidYMid meet">
<g transform="translate(0.000000,1280.000000) scale(0.100000,-0.100000)"
fill="#000000" stroke="none">
<path d="M1726 12784 c-131 -41 -187 -114 -206 -270 -20 -165 -368 -2903 -420
-3301 -16 -128 -30 -244 -30 -258 0 -18 -18 -42 -66 -88 -162 -152 -382 -425
-516 -640 -88 -142 -223 -417 -281 -572 -258 -694 -274 -1456 -46 -2149 159
-484 414 -906 765 -1266 l102 -105 16 -120 c8 -66 72 -563 141 -1105 70 -542
162 -1262 205 -1600 43 -338 93 -727 110 -864 36 -287 48 -323 128 -381 97
-70 -8 -66 1737 -63 l1570 3 56 26 c67 32 123 87 143 143 8 22 33 212 55 421
22 209 90 841 150 1405 204 1892 231 2148 231 2160 0 6 44 57 98 113 697 728
1015 1771 846 2777 -109 652 -405 1239 -874 1733 l-92 97 -44 403 c-81 747
-93 860 -224 2082 -79 733 -137 1237 -146 1261 -20 56 -76 111 -143 143 l-56
26 -1580 2 c-1384 2 -1586 0 -1629 -13z m1919 -3328 c674 -91 1252 -375 1725
-846 475 -473 764 -1062 856 -1740 24 -173 23 -538 0 -715 -93 -693 -400
-1302 -897 -1779 -819 -787 -2004 -1035 -3074 -645 -163 59 -452 206 -599 303
-565 376 -983 920 -1191 1551 -231 699 -198 1431 94 2109 185 429 499 838 871
1135 464 370 1018 590 1615 641 136 12 465 4 600 -14z"/>
<path d="M3035 9214 c-16 -2 -70 -9 -120 -15 -284 -34 -640 -149 -909 -293
-393 -211 -745 -533 -992 -908 -79 -120 -206 -363 -258 -494 -189 -479 -236
-1008 -135 -1531 105 -543 424 -1100 845 -1474 424 -375 894 -593 1459 -676
182 -26 552 -24 744 6 502 77 963 283 1341 599 119 99 314 300 401 412 323
415 517 898 570 1419 15 144 6 510 -16 644 -68 426 -204 777 -436 1122 -389
578 -992 988 -1675 1139 -174 38 -271 48 -529 51 -143 2 -273 1 -290 -1z m442
-114 c502 -41 966 -217 1370 -522 120 -90 319 -281 425 -408 171 -204 351
-514 443 -764 123 -334 180 -718 156 -1051 -48 -654 -310 -1227 -771 -1685
-424 -421 -975 -681 -1575 -741 -168 -17 -494 -6 -654 21 -547 92 -1033 341
-1416 725 -346 346 -577 754 -695 1225 -218 876 42 1801 689 2448 535 535
1282 812 2028 752z"/>
<path d="M4778 7624 c-15 -8 -357 -242 -759 -519 -402 -278 -735 -505 -741
-505 -6 0 -243 158 -527 352 -284 194 -535 359 -557 367 -109 39 -223 -70
-193 -184 6 -22 21 -51 32 -63 12 -13 279 -199 592 -412 621 -422 653 -441
712 -403 26 17 753 518 1363 939 164 113 272 195 283 213 23 40 22 117 -3 159
-40 66 -136 92 -202 56z"/>
<path d="M8825 11181 c-53 -24 -99 -77 -113 -132 -7 -24 -64 -588 -127 -1254
-63 -665 -124 -1298 -134 -1405 -16 -165 -22 -196 -37 -208 -11 -7 -73 -49
-139 -92 -664 -436 -1126 -1141 -1255 -1917 -186 -1125 303 -2237 1261 -2870
124 -82 127 -84 133 -126 3 -23 69 -703 146 -1512 77 -808 145 -1490 152
-1514 14 -55 60 -108 113 -132 38 -18 95 -19 1063 -19 901 0 1027 2 1060 15
86 36 119 95 132 237 6 57 51 612 100 1233 50 622 102 1264 115 1428 14 164
25 304 25 312 0 7 51 46 113 88 632 421 1079 1079 1227 1808 86 420 77 847
-25 1266 -167 688 -616 1318 -1220 1709 -65 43 -107 77 -110 89 -2 11 -52 616
-110 1345 -58 729 -110 1369 -115 1423 -14 137 -47 196 -132 232 -33 13 -159
15 -1060 15 -968 0 -1025 -1 -1063 -19z m1434 -2920 c304 -52 584 -149 833
-286 977 -541 1503 -1623 1318 -2713 -91 -532 -361 -1040 -756 -1422 -208
-201 -413 -344 -669 -470 -375 -183 -719 -263 -1130 -263 -419 0 -768 80
-1140 263 -282 138 -506 301 -725 526 -303 312 -509 664 -634 1084 -118 393
-132 861 -40 1280 65 293 203 617 372 870 337 505 839 880 1409 1051 125 38
299 75 408 88 50 6 101 13 115 15 14 3 135 3 270 1 194 -2 271 -7 369 -24z"/>
<path d="M9566 8055 c-985 -119 -1813 -866 -2031 -1832 -73 -325 -75 -703 -4
-1033 196 -909 942 -1639 1859 -1818 163 -32 270 -42 462 -42 429 0 820 104
1186 316 653 379 1091 1053 1173 1804 19 173 7 507 -25 670 -169 888 -791
1585 -1652 1850 -291 90 -659 122 -968 85z m614 -110 c229 -35 446 -103 654
-204 606 -297 1048 -833 1214 -1476 57 -220 66 -296 66 -565 0 -212 -3 -262
-22 -373 -69 -383 -228 -740 -460 -1032 -74 -94 -239 -262 -334 -342 -248
-207 -577 -375 -886 -452 -229 -58 -297 -65 -562 -65 -270 -1 -392 15 -604 74
-620 174 -1154 619 -1436 1195 -147 302 -216 583 -227 922 -6 195 4 335 39
508 137 696 597 1290 1243 1606 251 122 497 190 810 223 82 8 404 -4 505 -19z"/>
<path d="M11174 6676 c-17 -8 -323 -215 -679 -461 l-647 -446 -57 39 c-31 21
-240 164 -465 317 -365 248 -414 279 -455 282 -52 5 -98 -18 -127 -62 -24 -37
-23 -109 3 -143 31 -41 1015 -708 1074 -727 27 -9 47 -21 43 -26 -3 -5 0 -9 5
-9 6 0 11 4 11 8 0 10 103 83 864 607 318 219 585 409 593 422 70 106 -49 251
-163 199z"/>
</g>
</svg>
